<svg id="レイヤー_1" data-name="レイヤー 1" xmlns="http://www.w3.org/2000/svg" viewBox="0 0 481.89 127.56"><defs><style>.cls-1{isolation:isolate;}.cls-2{fill:#fff;}</style></defs><title>アートボード 1</title><g class="cls-1"><path class="cls-2" d="M78,60.24v8.58H50.22L29.08,111H19.24l21-42.18H1.45V60.24H43v-15L8.25,47.47V38.78L67.91,35V43.7l-16.12,1V60.24Z"/></g><g class="cls-1"><path class="cls-2" d="M111.8,70,140,107.74H129.81L106.74,76.88,83.86,107.74h-10l45.94-62.2H76.86V37.46H130.2l1.07,6.23Zm27.74-29.4h-6.13l-1.95-11.39h6.13Zm8.66,0H142L140,29.19h6.23Z"/></g><g class="cls-1"><path class="cls-2" d="M213.84,44.32V52.6H202.57l-22.85,55h-9.08l22.95-55H157l-7.08,16.86h-9l15.47-37.12h9l-5,12Z"/></g><rect class="cls-2" x="292.76" y="34.13" width="11.73" height="24.38"/><path class="cls-2" d="M340.46,87.12l-20.51-74.4a13.57,13.57,0,0,0-16.68-9.47l-74.4,20.51a13.57,13.57,0,0,0-9.47,16.68l20.51,74.4a13.57,13.57,0,0,0,16.68,9.47L331,103.8A13.57,13.57,0,0,0,340.46,87.12ZM271.82,34.73H257.56l-4,16H270.1v45H249.67L249.57,68l-2.73,9h-7.28l10.32-42.28h-8V27.15h29.94Zm47.95,31.15h-7.49v38.34h-7.79V65.89H292.36l-4.55,38.54h-7.49l4.55-38.54h-8.19V58.5h8.6V34.13h-5V26.64h37v7.49h-5.06V58.5h7.49Z"/><rect class="cls-2" x="257.05" y="57.8" width="6.17" height="30.75"/><g class="cls-1"><path class="cls-2" d="M343.8,42.14V49h-7.09v-14H367V30.23h7.18v4.82h30.24V49H397.3v-6.9Zm46.5,53.68h17.58V103H383.21V77.58H365.07l-9.26,26.94h-7.56l9.17-26.94H343V70.5h17.11l2.27-6.24h7.56l-2.27,6.24H390.3ZM355,59.25h-8.32l8.51-13.89h8.22Zm17.48-13.89h7.18v6.81h21v7.18H372.53Z"/></g><g class="cls-1"><path class="cls-2" d="M443.58,40.16,417.4,63H405.87l37.71-32.8L480.44,63H469.19ZM411.54,80V72.57h63.89V80H437.82l-6.71,14.27,27-1.23-2.65-6.9h8.13l7.56,20.51h-8.13l-2.27-6.14-42,2L429.5,80Zm14.18-15.88V57h34.12v7.18Z"/></g><path class="cls-2" d="M230,107.06H74.1v4.19H231.32Z"/><path class="cls-2" d="M480.44,22.45h-151l.65,4.19H480.44Z"/></svg>